<?xml version="1.0" encoding="UTF-8" standalone="no"?>
<svg
   height="24px"
   viewBox="0 -960 960 960"
   width="24px"
   fill="#000000"
   version="1.1"
   id="svg4"
   sodipodi:docname="checkout.svg"
   inkscape:version="1.2.1 (9c6d41e410, 2022-07-14)"
   xmlns:inkscape="http://www.inkscape.org/namespaces/inkscape"
   xmlns:sodipodi="http://sodipodi.sourceforge.net/DTD/sodipodi-0.dtd"
   xmlns="http://www.w3.org/2000/svg"
   xmlns:svg="http://www.w3.org/2000/svg">
  <defs
     id="defs8" />
  <sodipodi:namedview
     id="namedview6"
     pagecolor="#ffffff"
     bordercolor="#000000"
     borderopacity="0.25"
     inkscape:showpageshadow="2"
     inkscape:pageopacity="0.0"
     inkscape:pagecheckerboard="0"
     inkscape:deskcolor="#d1d1d1"
     showgrid="false"
     inkscape:zoom="11.844039"
     inkscape:cx="7.5565441"
     inkscape:cy="15.324165"
     inkscape:window-width="1920"
     inkscape:window-height="991"
     inkscape:window-x="-9"
     inkscape:window-y="-9"
     inkscape:window-maximized="1"
     inkscape:current-layer="svg4" />
  <path
     d="m480-560-56-56 63-64H320v-80h167l-64-64 57-56 160 160-160 160ZM280-80q-33 0-56.5-23.5T200-160q0-33 23.5-56.5T280-240q33 0 56.5 23.5T360-160q0 33-23.5 56.5T280-80Zm400 0q-33 0-56.5-23.5T600-160q0-33 23.5-56.5T680-240q33 0 56.5 23.5T760-160q0 33-23.5 56.5T680-80ZM40-800v-80h131l170 360h280l156-280h91L692-482q-11 20-29.5 31T622-440H324l-44 80h480v80H280q-45 0-68.5-39t-1.5-79l54-98-144-304H40Z"
     id="path2"
     style="fill:#ffffff;fill-opacity:1;stroke:none" />
  <path
     style="fill:#ffffff;stroke-width:0.0597015;fill-opacity:1;stroke:none"
     d="M 11.314205,9.2992803 10.628737,8.6133257 10.731574,8.5006928 c 0.05656,-0.061948 0.412002,-0.4249465 0.789871,-0.8066629 L 12.208479,7 H 10.111702 8.0149254 V 6 5 h 2.0968076 2.096808 l -0.798318,-0.7987284 -0.798317,-0.7987283 0.694205,-0.6937341 0.694206,-0.6937341 1.992379,1.9925457 1.992379,1.9925458 -1.992701,1.9925343 -1.9927,1.9925343 z"
     id="path306"
     transform="matrix(40,0,0,40,0,-960)" />
  <path
     style="fill:#ffffff;stroke-width:0.0597015;fill-opacity:1;stroke:none"
     d="M 6.7581391,16.967981 C 6.2226743,16.911167 5.8257448,16.690179 5.4750093,16.253603 5.0366275,15.70793 4.8969884,15.037723 5.0981678,14.444926 5.1521561,14.285843 6.1419648,12.43505 6.57592,11.681752 6.6207484,11.603935 6.5847934,11.524403 4.8183051,7.7939272 L 3.0149254,3.9855443 2.0074627,3.9853095 1,3.9850746 V 3 2.0149254 L 2.6343284,2.0158615 4.2686567,2.0167976 6.3871072,6.5083988 8.5055573,11 l 3.5233407,-0.0011 3.523341,-0.0011 1.940298,-3.4907246 1.940299,-3.4907243 1.11194,-7.528e-4 c 0.611567,-4.151e-4 1.11194,0.00506 1.11194,0.012174 0,0.029998 -4.415403,7.9875967 -4.501408,8.1126007 -0.262034,0.380853 -0.642199,0.647735 -1.125457,0.790088 -0.165941,0.04888 -0.465001,0.05392 -4.069057,0.06857 l -3.8899519,0.01581 -0.5346027,0.97015 C 7.2422081,14.518657 7.0012687,14.965299 7.0008185,14.977612 7.0003684,14.989925 9.7,15 13,15 h 6 v 1 1 L 12.992537,16.996 C 9.6884328,16.9938 6.8829537,16.9812 6.7581391,16.96795 Z"
     id="path308"
     transform="matrix(40,0,0,40,0,-960)" />
  <path
     style="fill:#ffffff;stroke-width:0.0597015;fill-opacity:1;stroke:none"
     d="M 6.5671642,21.936045 C 5.8595571,21.786495 5.210086,21.137977 5.0617453,20.432836 c -0.044352,-0.21083 -0.044352,-0.654842 0,-0.865672 0.1152303,-0.54775 0.5604048,-1.103484 1.0875084,-1.357593 1.1146266,-0.537345 2.4590045,0.09849 2.7757609,1.312817 0.060981,0.233779 0.060981,0.721445 0,0.955224 -0.2721728,1.043412 -1.3034209,1.681284 -2.3578504,1.458433 z"
     id="path310"
     transform="matrix(40,0,0,40,0,-960)" />
  <path
     style="fill:#ffffff;stroke-width:0.0597015;fill-opacity:1;stroke:none"
     d="m 16.567164,21.936045 c -0.707607,-0.14955 -1.357078,-0.798068 -1.505419,-1.503209 -0.04435,-0.21083 -0.04435,-0.654842 0,-0.865672 0.115231,-0.54775 0.560405,-1.103484 1.087509,-1.357593 1.114626,-0.537345 2.459004,0.09849 2.775761,1.312817 0.06098,0.233779 0.06098,0.721445 0,0.955224 -0.272173,1.043412 -1.303421,1.681284 -2.357851,1.458433 z"
     id="path312"
     transform="matrix(40,0,0,40,0,-960)" />
</svg>
