<?xml version="1.0" encoding="UTF-8" standalone="no"?>
<!-- Created with Inkscape (http://www.inkscape.org/) -->

<svg
   width="1920"
   height="1080"
   viewBox="0 0 1920 1080"
   version="1.1"
   id="svg5"
   xml:space="preserve"
   inkscape:export-filename="Food Recipe(RBMP).svg"
   inkscape:export-xdpi="96"
   inkscape:export-ydpi="96"
   sodipodi:docname="Food Recipe(RBMP).svg"
   xmlns:inkscape="http://www.inkscape.org/namespaces/inkscape"
   xmlns:sodipodi="http://sodipodi.sourceforge.net/DTD/sodipodi-0.dtd"
   xmlns="http://www.w3.org/2000/svg"
   xmlns:svg="http://www.w3.org/2000/svg"><sodipodi:namedview
     id="namedview7"
     pagecolor="#ffffff"
     bordercolor="#000000"
     borderopacity="0.25"
     inkscape:showpageshadow="2"
     inkscape:pageopacity="0.0"
     inkscape:pagecheckerboard="0"
     inkscape:deskcolor="#d1d1d1"
     inkscape:document-units="px"
     showgrid="false" /><defs
     id="defs2" /><g
     inkscape:label="Layer 1"
     inkscape:groupmode="layer"
     id="layer1"><path
       style="fill:#000080;stroke-width:7.85518"
       d="m 53.401548,755.03757 c 0,-204.23449 0,-204.23449 64.805172,-204.2683 73.25609,-0.0385 45.42531,15.33569 233.69139,-129.09245 C 606.22944,226.56678 580.39008,240.60919 634.6654,268.0073 c 88.74146,44.79652 72.9304,48.44594 194.07012,-44.79412 59.60513,-45.87748 121.234,-93.72233 136.95298,-106.32187 31.20648,-25.013512 19.39976,-30.574956 231.4538,109.02395 47.9965,31.59701 53.1875,32.00327 86.292,6.75331 37.4168,-28.53926 33.7124,-30.40811 204.055,102.94297 302.2644,236.62489 268.7196,215.19154 336.79,215.19154 59.3774,0 59.3774,0 59.3774,204.23449 0,204.23454 0,204.23454 -915.12754,204.23454 -915.127612,0 -915.127612,0 -915.127612,-204.23454 z M 1871.874,751.10998 c 0,-188.52415 0,-188.52415 -57.9693,-190.85265 -57.9694,-2.3285 -57.9694,-2.3285 -267.0759,-165.24534 -115.0086,-89.60427 -213.3123,-165.51607 -218.4527,-168.6929 -5.311,-3.28226 -24.5383,4.93239 -44.5338,19.02652 -35.1877,24.80256 -35.1877,24.80256 -126.2259,-33.21311 C 969.99165,92.565407 1007.3806,96.973427 898.72379,181.60995 c -24.95911,19.44155 -75.64351,58.9314 -112.63195,87.75522 -67.25166,52.40695 -67.25166,52.40695 -133.04872,19.77498 -47.43919,-23.52742 -68.90149,-30.47855 -76.92397,-24.91384 -6.11982,4.24497 -38.74793,29.07967 -72.50679,55.18823 C 199.20968,554.83451 194.63268,557.7653 127.47539,560.26618 71.744699,562.34153 26.271448,833.20619 64.79843,933.60595 c 3.09353,8.06159 180.21906,9.63149 905.46076,8.02517 901.61481,-1.99695 901.61481,-1.99695 901.61481,-190.52114 z m -1775.674228,158.88 c -2.126356,-5.54119 -2.825907,-80.67176 -1.554557,-166.95676 2.311546,-156.88186 2.311546,-156.88186 4.099456,6.11297 2.796329,254.92571 1736.039029,258.83841 1739.824529,3.92759 2.3622,-159.06726 2.3622,-159.06726 2.1232,1.96379 -0.2388,161.03105 -0.2388,161.03105 -870.43282,163.02914 -702.13994,1.61224 -870.94035,0.055 -874.059808,-8.07673 z M 387.84464,818.84685 c -5.14081,-8.31796 -27.81163,-102.99716 -27.97526,-116.83169 -0.2977,-25.16705 30.74225,-9.0218 35.94197,18.69506 5.3493,28.51403 5.3493,28.51403 15.6871,3.92759 10.57054,-25.13987 34.66173,-34.03893 34.66173,-12.80368 0,6.48051 3.53483,11.78275 7.85518,11.78275 4.32034,0 7.85517,-4.86942 7.85517,-10.82093 0,-14.77803 18.22275,-28.78427 28.77153,-22.11422 14.86843,9.4014 -11.6749,135.05241 -28.52936,135.05241 -7.45346,0 -17.3875,-7.95337 -22.0757,-17.67419 -6.1975,-12.85045 -8.66897,-14.15173 -9.05552,-4.76791 -0.7541,18.30356 -34.02366,30.30033 -43.13684,15.55481 z m 128.17105,1.57187 c -3.39187,-26.08158 3.49554,-125.70424 9.09157,-131.50524 24.1739,-25.05918 90.23724,22.20748 74.21175,53.09662 -8.58123,16.54041 -9.1468,25.89124 -2.45443,40.57949 12.48957,27.41171 18.9993,18.77896 30.06575,-39.87101 13.78057,-73.03417 41.76148,-78.16975 61.78423,-11.3398 5.19297,17.33268 13.0311,31.51397 17.41798,31.51397 17.11469,0 2.86337,50.96363 -14.97981,53.56879 -9.4559,1.38055 -17.19254,-1.27057 -17.19254,-5.89146 0,-11.06278 -18.06454,-10.76033 -29.31574,0.49086 -18.49257,18.49259 -61.97959,15.2563 -73.05412,-5.43672 -12.78202,-23.88345 -21.46843,-24.43562 -24.73036,-1.57208 -2.34509,16.43692 -28.99604,30.57849 -30.84428,16.36658 z m 47.97208,-88.94667 c 0,-4.32034 -3.53482,-7.85517 -7.85517,-7.85517 -4.32034,0 -7.85517,3.53483 -7.85517,7.85517 0,4.32035 3.53483,7.85518 7.85517,7.85518 4.32035,0 7.85517,-3.53483 7.85517,-7.85518 z m 157.10345,27.76949 c 0,-80.18293 8.25493,-89.08133 60.87759,-65.62289 42.67748,19.02504 43.18279,37.09412 1.9638,70.21861 -20.46092,16.44287 -31.42069,31.64169 -31.42069,43.57361 0,13.08649 -4.49002,18.32327 -15.71035,18.32327 -14.47307,0 -15.71035,-5.23678 -15.71035,-66.4926 z m 51.05863,-27.76949 c 2.67013,-4.32034 -0.65591,-7.85517 -7.39156,-7.85517 -6.7355,0 -12.24637,3.53483 -12.24637,7.85517 0,4.32035 3.32619,7.85518 7.39156,7.85518 4.06537,0 9.57624,-3.53483 12.24637,-7.85518 z m 91.71032,84.13705 c -7.58614,-9.14063 1.62539,-121.10599 10.71586,-130.25061 1.59107,-1.60057 18.96294,-0.5003 38.60402,2.4451 43.28145,6.49044 53.97603,35.81329 13.06181,35.81329 -16.84801,0 -23.86252,4.52698 -27.3858,17.67414 -9.9928,37.28795 -6.41775,43.37728 27.3576,46.59822 36.13781,3.44629 35.23509,4.7096 42.43773,-59.39321 5.18873,-46.17948 5.18873,-46.17948 44.83821,-41.48359 49.5561,5.8692 47.1704,2.87168 52.6029,66.08958 5.3272,61.99246 14.7891,55.46291 22.8424,-15.7631 4.9517,-43.79529 66.5692,-72.8492 91.8891,-43.3277 48.901,57.01538 -36.468,170.73205 -93.6616,124.7631 -5.0334,-4.04547 -29.6876,-4.02815 -58.8639,0.0415 -30.19681,4.2119 -53.67435,4.12838 -58.91382,-0.20958 -5.16628,-4.27747 -23.09406,-4.43382 -44.05896,-0.3842 -47.78231,9.22975 -51.77809,9.0599 -61.46555,-2.61284 z m 171.33073,-42.89742 c -0.1999,-25.62505 -9.5366,-49.0948 -19.5307,-49.0948 -9.9942,0 -19.33072,23.46975 -19.5307,49.0948 -0.0707,9.4548 6.0238,13.74658 19.5307,13.74658 13.5069,0 19.6045,-4.29178 19.5307,-13.74658 z m 117.9348,-18.25008 c 0,-26.22865 -2.4781,-31.52705 -13.7466,-29.39157 -21.922,4.15441 -24.1949,61.38823 -2.438,61.38823 13.6938,0 16.1846,-4.92427 16.1846,-31.99666 z m 58.5062,61.26007 c -11.756,-30.63566 0.2224,-127.45307 15.7688,-127.45307 13.4991,0 15.4036,5.71291 15.7104,47.13104 0.344,46.43368 0.6975,47.17054 23.8891,49.80361 12.947,1.46999 26.1484,6.77224 29.3367,11.78283 3.188,5.01059 5.8507,-18.28478 5.9169,-51.76747 0.1099,-55.60071 1.482,-60.87759 15.8305,-60.87759 14.4696,0 15.7104,5.23678 15.7104,66.30538 0,65.11086 -6.1117,81.94723 -25.4162,70.01635 -9.998,-6.17907 -54.3308,-4.9776 -78.7036,2.13287 -7.7194,2.25208 -15.6587,-0.86054 -18.043,-7.07395 z m 148.9185,3.99339 c -7.5986,-5.09702 -8.2315,-23.78146 -4.0053,-118.24624 1.257,-28.09716 32.9611,-19.61385 49.347,13.20415 13.1836,26.40436 13.1836,26.40436 15.7103,0 6.0907,-63.64656 34.1049,-32.94068 32.4548,35.57309 -1.9289,80.09185 -23.5312,99.85036 -49.8545,45.59904 -10.2717,-21.16956 -10.2717,-21.16956 -14.8106,1.74794 -4.7877,24.17438 -14.5822,31.68689 -28.8417,22.12202 z m 115.4597,-4.77289 c -5.2286,-6.30005 -5.4369,-26.86866 -0.6104,-60.26385 4.0301,-27.88466 7.3985,-55.59838 7.4853,-61.58604 0.154,-10.61473 60.6191,-8.14918 79.0182,3.22207 13.7843,8.51925 -2.5881,27.30253 -23.7983,27.30253 -21.9816,0 -31.1256,14.4694 -31.3892,49.67085 -0.1618,21.57409 25.8093,12.92111 31.3232,-10.43623 8.6104,-36.47381 27.4834,-23.44924 27.4834,18.96668 0,39.57801 -64.3829,63.40294 -89.5122,33.12399 z M 288.2295,582.56319 c -83.30659,-4.26701 -83.30659,-4.26701 47.13104,-102.43082 71.74066,-53.99008 132.20499,-99.94284 134.36517,-102.11724 6.27604,-6.31739 64.40283,-50.18583 92.60179,-69.88685 28.6878,-20.04255 27.15621,-20.38775 121.03871,27.27981 36.89912,18.735 36.89912,18.735 129.75739,-53.78502 190.7948,-149.00607 179.57012,-141.77212 200.0301,-128.91331 10.0193,6.29692 59.0356,37.84455 108.9251,70.10585 133.8042,86.52507 121.392,82.40714 162.0365,53.75825 39.9301,-28.14536 19.5098,-37.97309 179.182,86.23555 156.1264,121.45027 203.8296,158.10898 242.7057,186.5136 32.905,24.0418 36.258,28.82745 23.5655,33.63478 -16.9579,6.42291 -1315.17675,6.0675 -1441.339,-0.39457 z m 519.26862,-58.7896 c 0,-119.43094 -192.91211,-238.781 -257.60786,-159.37575 -56.54978,69.40717 -74.74426,130.737 -35.23588,118.77302 12.01214,-3.63754 39.51443,-6.74045 61.11616,-6.89538 21.60172,-0.15489 44.00239,-3.29009 49.77925,-6.96708 6.207,-3.95073 14.07929,-3.10958 19.24516,2.05634 4.808,4.80799 18.38276,8.74178 30.16614,8.74178 13.49661,0 27.14033,7.26671 36.87156,19.63793 17.66204,22.45363 24.96892,24.75237 24.96892,7.85517 0,-15.17475 2.36826,-14.89664 33.19463,3.89823 25.0199,15.25465 37.50192,19.34046 37.50192,12.27574 z M 1243.718,358.98855 c 34.4724,-8.65203 41.3965,-2.30978 -128.4686,-117.67227 -126.39294,-85.83866 -117.34307,-84.94825 -163.07847,-16.04499 -65.89147,99.26971 -77.02123,175.5212 -19.59764,134.2665 39.33438,-28.25895 39.33438,-28.25895 54.13321,4.91524 25.7929,57.81918 81.2798,89.96473 104.6515,60.62838 18.5643,-23.30209 18.5643,-23.30209 73.5505,40.36801 54.9862,63.6701 54.9862,63.6701 57.2078,-18.96334 2.1641,-80.49752 2.7224,-82.75915 21.6017,-87.49753 z m 257.6454,48.45761 C 1359.9267,291.69851 1332.7486,272.73075 1325.2668,284.54674 c -15.1105,23.86382 -6.29,49.16105 33.5783,96.30348 53.3191,63.04712 61.5077,69.63375 73.843,59.39635 6.9144,-5.73836 14.7827,-5.11371 26.4135,2.09691 13.7009,8.49403 17.7007,8.44632 23.1301,-0.27588 5.3245,-8.55382 12.3271,-7.50658 37.0724,5.54422 57.659,30.40966 51.5292,16.68643 -17.9407,-40.16566 z"
       id="path856" /></g></svg>
