<?xml version="1.0" encoding="UTF-8" standalone="no"?>
<svg
   height="800"
   width="1200"
   viewBox="-44.7006 -60.54775 387.4052 363.2865"
   version="1.1"
   id="svg4"
   sodipodi:docname="Twitter-Logo.wine.svg"
   xmlns:inkscape="http://www.inkscape.org/namespaces/inkscape"
   xmlns:sodipodi="http://sodipodi.sourceforge.net/DTD/sodipodi-0.dtd"
   xmlns="http://www.w3.org/2000/svg"
   xmlns:svg="http://www.w3.org/2000/svg">
  <defs
     id="defs8" />
  <sodipodi:namedview
     id="namedview6"
     pagecolor="#ffffff"
     bordercolor="#000000"
     borderopacity="0.25"
     inkscape:showpageshadow="2"
     inkscape:pageopacity="0.0"
     inkscape:pagecheckerboard="0"
     inkscape:deskcolor="#d1d1d1"
     showgrid="false" />
  <path
     fill="#1da1f2"
     d="m 93.719,242.19 c 112.46,0 173.96,-93.168 173.96,-173.96 0,-2.646 -0.054,-5.28 -0.173,-7.903 a 124.338,124.338 0 0 0 30.498,-31.66 c -10.955,4.87 -22.744,8.148 -35.11,9.626 12.622,-7.57 22.313,-19.543 26.885,-33.817 A 122.62,122.62 0 0 1 250.955,19.317 C 239.798,7.433 223.915,0 206.326,0 c -33.764,0 -61.144,27.381 -61.144,61.132 0,4.798 0.537,9.465 1.586,13.941 C 95.953,72.516 50.894,48.187 20.738,11.193 a 60.977,60.977 0 0 0 -8.279,30.73 c 0,21.212 10.794,39.938 27.208,50.893 a 60.685,60.685 0 0 1 -27.69,-7.647 c -0.009,0.257 -0.009,0.507 -0.009,0.781 0,29.61 21.075,54.332 49.051,59.934 a 61.218,61.218 0 0 1 -16.122,2.152 60.84,60.84 0 0 1 -11.491,-1.103 c 7.784,24.293 30.355,41.971 57.115,42.465 -20.926,16.402 -47.287,26.171 -75.937,26.171 -4.929,0 -9.798,-0.28 -14.584,-0.846 27.059,17.344 59.189,27.464 93.722,27.464"
     id="path2"
     style="fill:#ffffff" />
</svg>
