<?xml version="1.0" encoding="UTF-8" standalone="no"?>
<svg
   height="800"
   width="1200"
   viewBox="-35.20005 -41.33325 305.0671 247.9995"
   version="1.1"
   id="svg6"
   xmlns="http://www.w3.org/2000/svg"
   xmlns:svg="http://www.w3.org/2000/svg">
  <defs
     id="defs10" />
  <path
     d="M 229.763,25.817 C 227.064,15.655 219.113,7.652 209.016,4.936 190.716,0 117.333,0 117.333,0 117.333,0 43.951,0 25.651,4.936 15.554,7.652 7.602,15.655 4.904,25.817 0,44.237 0,82.667 0,82.667 c 0,0 0,38.43 4.904,56.85 2.698,10.162 10.65,18.164 20.747,20.881 18.3,4.935 91.682,4.935 91.682,4.935 0,0 73.383,0 91.683,-4.935 10.097,-2.717 18.048,-10.72 20.747,-20.88 4.904,-18.422 4.904,-56.851 4.904,-56.851 0,0 0,-38.43 -4.904,-56.85"
     fill="#282828"
     id="path2"
     style="fill:#ffffff" />
  <path
     d="M 93.333,117.558 154.667,82.668 93.333,47.775 Z"
     fill="#fff"
     id="path4"
     style="fill:#3b82f6;fill-opacity:1;stroke:none;stroke-opacity:1" />
</svg>
